<svg width="32" height="32" viewBox="0 0 32 32" fill="none" xmlns="http://www.w3.org/2000/svg">
<path d="M0 16C0 7.16344 7.16344 0 16 0C24.8366 0 32 7.16344 32 16C32 24.8366 24.8366 32 16 32C7.16344 32 0 24.8366 0 16Z" fill="#FEF4E1"/>
<path d="M16.0004 20.9852L12.7845 22.3634C12.2741 22.5803 11.7891 22.5389 11.3297 22.239C10.8703 21.9391 10.6406 21.5148 10.6406 20.966V11.0314C10.6406 10.6102 10.7906 10.2497 11.0905 9.94984C11.3904 9.64995 11.7509 9.5 12.172 9.5H19.8288C20.2499 9.5 20.6104 9.64995 20.9103 9.94984C21.2102 10.2497 21.3601 10.6102 21.3601 11.0314V20.966C21.3601 21.5148 21.1304 21.9391 20.671 22.239C20.2116 22.5389 19.7267 22.5803 19.2162 22.3634L16.0004 20.9852Z" fill="#EE7F12"/>
</svg>
