<svg width="33" height="32" viewBox="0 0 33 32" fill="none" xmlns="http://www.w3.org/2000/svg">
<g opacity="0.05">
<path d="M0.742188 16C0.742188 7.16344 7.90563 0 16.7422 0C25.5787 0 32.7422 7.16344 32.7422 16C32.7422 24.8366 25.5787 32 16.7422 32C7.90563 32 0.742188 24.8366 0.742188 16Z" fill="#6C6E7E"/>
</g>
<path fillRule="evenodd" clipRule="evenodd" d="M16.7432 19.591L20.5257 21.1719C20.6575 21.227 20.8028 21.1302 20.8028 20.9874V11C20.8028 10.8895 20.7133 10.8 20.6028 10.8H12.8828C12.7724 10.8 12.6828 10.8895 12.6828 11V20.9875C12.6828 21.1303 12.8282 21.2271 12.9599 21.172L16.7432 19.591ZM16.7432 21L20.0244 22.3713C21.0126 22.7844 22.1028 22.0584 22.1028 20.9874V11C22.1028 10.1716 21.4312 9.5 20.6028 9.5H12.8828C12.0544 9.5 11.3828 10.1716 11.3828 11V20.9875C11.3828 22.0585 12.473 22.7844 13.4612 22.3715L16.7432 21Z" fill="#E8E8EE"/>
</svg>
